<svg xmlns="http://www.w3.org/2000/svg" version="1.1" xmlns:xlink="http://www.w3.org/1999/xlink" xmlns:svgjs="http://svgjs.dev/svgjs" width="1440" height="560" preserveAspectRatio="none" viewBox="0 0 1440 560"><g mask="url(&quot;#SvgjsMask1005&quot;)" fill="none"><rect width="1440" height="560" x="0" y="0" fill="rgba(220, 229, 6, 1)"></rect><path d="M0,444.726C82.048,446.255,142.393,373.296,212.625,330.85C285.179,287,374.27,263.344,419.134,191.412C466.1,116.111,482.102,19.841,460.253,-66.174C439.177,-149.145,355.597,-195.073,303.674,-263.135C247.281,-337.057,225.937,-443.546,141.946,-483.424C55.551,-524.443,-55.721,-520.37,-138.974,-473.3C-218.95,-428.082,-235.732,-323.601,-281.563,-243.975C-317.779,-181.055,-372.134,-126.805,-379.954,-54.629C-387.657,16.465,-353.721,82.925,-324.029,147.979C-294.331,213.047,-260.339,274.712,-207.591,323.018C-147.214,378.312,-81.857,443.2,0,444.726" fill="#b0b705"></path><path d="M1440 1218.529C1564.228 1241.58 1706.162 1203.127 1796.624 1114.9180000000001 1884.32 1029.406 1866.8690000000001 887.985 1899.938 770.047 1927.138 673.038 1975.4569999999999 583.995 1973.7359999999999 483.26 1971.853 373.03999999999996 1947.412 264.257 1889.691 170.341 1825.2 65.40899999999999 1749.196-58.77200000000005 1627.8029999999999-79.59799999999996 1505.867-100.51700000000005 1414.632 34.48599999999999 1295.662 68.42899999999997 1175.28 102.77499999999998 1007.9010000000001 20.187000000000012 931.223 119.142 853.147 219.901 951.977 365.519 967.4069999999999 492.051 978.4449999999999 582.571 976.563 671.605 1008.986 756.837 1043.229 846.855 1093.644 926.2719999999999 1159.367 996.673 1242.422 1085.6399999999999 1320.333 1196.324 1440 1218.529" fill="#f0f921"></path></g><defs><mask id="SvgjsMask1005"><rect width="1440" height="560" fill="#ffffff"></rect></mask></defs></svg>